<?xml version="1.0" encoding="utf-8"?>
<!-- Generator: Adobe Illustrator 26.2.1, SVG Export Plug-In . SVG Version: 6.00 Build 0)  -->
<svg version="1.1" id="Laag_1" xmlns="http://www.w3.org/2000/svg" xmlns:xlink="http://www.w3.org/1999/xlink" x="0px" y="0px"
	 viewBox="0 0 723.62 723.62" style="enable-background:new 0 0 723.62 723.62;" xml:space="preserve">
<style type="text/css">
	.st0{fill:#E30613;}
	.st1{fill:#BE1622;}
	.st2{fill:#E30613;stroke:#BE1622;stroke-width:0.159;stroke-miterlimit:10;}
	.st3{fill:#E30613;stroke:#BE1622;stroke-width:0.1128;stroke-miterlimit:10;}
</style>
<g>
	<path class="st0" d="M347.23,225.63c-1.62-18.21,12.73-34.15,28.5-43.41c29.31-17.21,70.28-18.1,94.78,5.46
		c23.81,22.88,25.42,61.94,12.32,92.25s-37.95,53.76-62.74,75.58s-50.7,43.57-67.07,72.25"/>
	<g>
		<path class="st1" d="M349.73,225.63c-1.19-14.37,7.9-26.72,18.59-35.32c10.63-8.55,23.8-14,37.12-16.6
			c13-2.53,26.72-2.2,39.4,1.78c12.46,3.91,23.59,11.62,31.13,22.34c7.61,10.81,11.53,23.83,12.35,36.96
			c0.86,13.62-1.35,27.36-6.15,40.12c-5.38,14.32-14,27.41-23.73,39.13c-10.2,12.29-21.8,23.33-33.67,33.97
			c-11.99,10.74-24.31,21.12-35.96,32.24c-11.65,11.11-22.66,23-31.74,36.33c-2.2,3.22-4.27,6.53-6.21,9.92
			c-1.6,2.8,2.72,5.32,4.32,2.52c8.16-14.25,18.75-26.87,30.29-38.5c11.63-11.72,24.16-22.48,36.55-33.39
			c12.24-10.78,24.33-21.8,35.18-33.99c10.72-12.05,20.28-25.3,26.95-40.04c5.94-13.12,9.25-27.38,9.36-41.8
			c0.11-13.89-2.81-27.99-9.58-40.2c-6.75-12.17-17.36-21.93-30.11-27.54c-12.76-5.62-26.96-7.41-40.79-6
			c-14.14,1.44-28.09,5.95-40.2,13.47c-12.35,7.67-24.11,19.37-27.36,34.02c-0.77,3.47-1.05,7.03-0.75,10.57
			c0.11,1.35,1.07,2.5,2.5,2.5C348.5,228.13,349.84,226.98,349.73,225.63L349.73,225.63z"/>
	</g>
</g>
<g>
	<path class="st0" d="M358.7,226.41c1.62-18.21-12.73-34.15-28.5-43.41c-29.31-17.21-70.28-18.1-94.78,5.46
		c-23.81,22.88-25.42,61.94-12.32,92.25s37.95,53.76,62.74,75.58s50.7,43.57,67.07,72.25"/>
	<g>
		<path class="st1" d="M361.2,226.41c1.26-15.17-7.94-28.8-19.16-38.12c-11.05-9.18-24.61-15.31-38.63-18.29
			c-13.73-2.92-28.25-2.95-41.81,0.9c-13.31,3.79-25.38,11.45-33.91,22.41c-8.67,11.14-13.35,24.7-14.8,38.66
			c-1.46,14.02,0.38,28.46,4.87,41.8c5.07,15.06,13.57,28.78,23.4,41.18c10.09,12.73,21.76,24.1,33.78,34.99
			c12.24,11.08,24.9,21.69,36.92,33.02c11.92,11.24,23.29,23.21,32.55,36.76c2.24,3.28,4.35,6.65,6.32,10.09
			c1.6,2.79,5.92,0.28,4.32-2.52c-8.01-13.98-18.33-26.49-29.57-37.99c-11.29-11.55-23.51-22.14-35.64-32.8
			c-11.95-10.5-23.82-21.14-34.62-32.84c-10.62-11.5-20.16-24.09-27.16-38.14c-6.17-12.4-9.92-25.93-10.56-39.79
			c-0.61-13.2,1.49-26.76,7.41-38.67c5.91-11.88,15.39-21.45,27.32-27.29c11.92-5.83,25.52-7.65,38.66-6.6
			c13.39,1.07,26.63,5.25,38.19,12.08c11.75,6.94,23.13,17.66,26.4,31.38c0.77,3.21,0.97,6.49,0.7,9.78c-0.11,1.35,1.23,2.5,2.5,2.5
			C360.15,228.91,361.09,227.76,361.2,226.41L361.2,226.41z"/>
	</g>
</g>
<path d="M302.03,352.21L216,413l87.93-58.05C303.29,354.04,302.66,353.12,302.03,352.21z"/>
<path d="M475.31,241.8l51.41-33.94l-8.17-8.63l-48.32,34.14C471.94,236.16,473.63,238.98,475.31,241.8z"/>
<polygon class="st2" points="508,189 536,217 558,180 "/>
<polygon class="st3" points="260.78,381.58 239.17,380.92 214.24,403.25 239.49,397.97 238.34,412.75 261.37,395.91 "/>
</svg>
